<svg width="40" height="20" viewBox="0 0 40 20" fill="none" xmlns="http://www.w3.org/2000/svg">
<path d="M6.866 0.000211859C7.07735 0.000211859 7.26925 0.0259876 7.44114 0.0775402C7.61249 0.129093 7.77844 0.202664 7.9379 0.297714L7.62655 0.666637C7.49898 0.595215 7.37087 0.545812 7.2433 0.517887C7.11573 0.489963 6.99195 0.475999 6.87195 0.475999C6.66816 0.475999 6.47086 0.510906 6.27897 0.580179C6.08708 0.64999 5.91356 0.757928 5.75788 0.904531L5.41031 0.577495C5.60221 0.398672 5.81789 0.257976 6.05735 0.154871C6.29681 0.0517653 6.56654 0.000211859 6.866 0.000211859ZM5.2968 0.696709L5.64383 1.02375C5.50815 1.17465 5.40761 1.34112 5.34166 1.5237C5.27572 1.70628 5.24275 1.89262 5.24275 2.08272C5.24275 2.30504 5.28491 2.5134 5.36869 2.7078C5.45248 2.9022 5.56815 3.07243 5.71572 3.21957C5.86383 3.36617 6.03735 3.48109 6.23681 3.56433C6.43681 3.64756 6.65249 3.68945 6.88384 3.68945C7.02384 3.68945 7.15465 3.6728 7.27627 3.63897C7.3979 3.60514 7.52276 3.55251 7.65087 3.48109L7.9379 3.86827C7.77844 3.96332 7.61358 4.03689 7.44384 4.08844C7.27411 4.14 7.08763 4.16577 6.88384 4.16577C6.58816 4.16577 6.31194 4.111 6.05464 4.00198C5.7968 3.89297 5.57194 3.74422 5.38058 3.55573C5.18869 3.36724 5.03788 3.146 4.92815 2.89199C4.81842 2.63852 4.76382 2.36841 4.76382 2.08272C4.76382 1.8169 4.81031 1.56612 4.90436 1.33038C4.99788 1.0941 5.12923 0.883051 5.2968 0.696709Z" fill="white"/>
<path d="M10.5137 4.16556V3.68977C10.7175 3.67742 10.9078 3.62694 11.0856 3.5378C11.2634 3.44866 11.4191 3.33159 11.5532 3.1866C11.6867 3.04214 11.7916 2.87513 11.8672 2.68664C11.9434 2.49869 11.9813 2.29731 11.9813 2.08305C11.9813 1.86878 11.9434 1.66741 11.8672 1.47892C11.7916 1.29043 11.6867 1.12396 11.5532 0.978963C11.4191 0.834509 11.2634 0.71744 11.0856 0.62776C10.9078 0.538617 10.7175 0.488138 10.5137 0.476324V0C10.7851 0.0123511 11.0386 0.0746432 11.2743 0.187952C11.5099 0.300723 11.7153 0.451623 11.8916 0.640112C12.0672 0.828601 12.2056 1.04555 12.3078 1.2915C12.4094 1.53745 12.4602 1.80112 12.4602 2.08305C12.4602 2.36068 12.4094 2.62328 12.3078 2.87137C12.2056 3.11947 12.0672 3.3375 11.8916 3.52599C11.7153 3.71447 11.5099 3.86484 11.2743 3.97814C11.0386 4.09145 10.7851 4.15374 10.5137 4.16556ZM10.3342 0V0.476324C10.1305 0.488138 9.93965 0.538617 9.76181 0.62776C9.58451 0.71744 9.42829 0.834509 9.29478 0.978963C9.16072 1.12396 9.0564 1.29043 8.98018 1.47892C8.9045 1.66741 8.86667 1.86878 8.86667 2.08305C8.86667 2.29731 8.9045 2.49869 8.98018 2.68664C9.0564 2.87513 9.16072 3.04214 9.29478 3.1866C9.42829 3.33159 9.58451 3.44866 9.76181 3.5378C9.93965 3.62694 10.1305 3.67742 10.3342 3.68977V4.16556C10.0667 4.15374 9.8137 4.09145 9.5764 3.97814C9.33856 3.86484 9.13207 3.71447 8.9564 3.52599C8.78072 3.3375 8.6418 3.11947 8.54018 2.87137C8.43801 2.62328 8.3872 2.36068 8.3872 2.08305C8.3872 1.80112 8.43801 1.53745 8.54018 1.2915C8.6418 1.04555 8.78072 0.828601 8.9564 0.640112C9.13207 0.451623 9.33856 0.300723 9.5764 0.187952C9.8137 0.0746432 10.0667 0.0123511 10.3342 0Z" fill="white"/>
<path d="M13.3408 3.68955H14.4668C14.523 3.68955 14.5954 3.68579 14.6857 3.67774C14.7754 3.66968 14.8711 3.64982 14.9727 3.61813C15.0749 3.58645 15.1776 3.53704 15.2814 3.46938C15.3852 3.40172 15.4781 3.30882 15.5597 3.1896C15.6419 3.07092 15.7089 2.9211 15.7608 2.74066C15.8127 2.55969 15.8387 2.34059 15.8387 2.08283C15.8387 1.82506 15.8127 1.60597 15.7608 1.42553C15.7089 1.2451 15.6408 1.09527 15.557 0.976058C15.4733 0.857379 15.3792 0.763941 15.2754 0.696278C15.1716 0.629152 15.0668 0.579211 14.9608 0.547528C14.8554 0.515845 14.7554 0.495975 14.6614 0.48792C14.5678 0.480402 14.4889 0.476106 14.4251 0.476106H13.5203L13.0895 0.00031876H14.4127C14.4646 0.00031876 14.5478 0.00300265 14.6614 0.00890972C14.7754 0.0153538 14.903 0.0379086 15.0446 0.0776471C15.1868 0.117386 15.3322 0.178604 15.4819 0.26184C15.6316 0.345613 15.7684 0.464292 15.8922 0.61895C16.016 0.773607 16.1181 0.970151 16.1981 1.20804C16.2776 1.44648 16.3176 1.73753 16.3176 2.08283C16.3176 2.42812 16.2776 2.71972 16.1981 2.95761C16.1181 3.19551 16.016 3.39205 15.8922 3.54671C15.7684 3.70137 15.6316 3.82058 15.4819 3.90382C15.3322 3.98705 15.1868 4.04881 15.0446 4.08801C14.903 4.12775 14.7754 4.15084 14.6614 4.15675C14.5478 4.16266 14.4646 4.16534 14.4127 4.16534H12.9095L13.3408 3.68955Z" fill="white"/>
<path d="M17.1382 1.84483H19.1566L18.8031 2.32062H17.6172V3.68945H18.9593L19.5339 4.16577H17.1382V1.84483ZM17.1264 0.000211859H19.5161L18.941 0.475999H17.1264V0.000211859Z" fill="white"/>
<path d="M21.9119 1.83892L22.8881 2.91616V0.000211859H23.3676V4.16577L21.9119 2.55314V1.83892ZM21.7324 2.35069L20.7319 1.24983V4.16577H20.253V0.000211859L21.7324 1.63647V2.35069Z" fill="white"/>
<path d="M25.3141 0.625074L25.5595 0L27.1233 4.16556H26.6438L25.3141 0.625074ZM23.8768 4.16556L25.2125 0.86297L25.4519 1.47623L24.3557 4.16556H23.8768Z" fill="white"/>
<path d="M31.4056 0.000211859V4.16577H30.9267V1.39267L29.6088 3.09444V2.31471L31.4056 0.000211859ZM27.6321 0.000211859L29.4288 2.31471V3.09444L28.111 1.39267V4.16577H27.6321V0.000211859Z" fill="white"/>
<path d="M32.4957 1.84483H34.5141L34.1611 2.32062H32.9746V3.68945H34.3168L34.8914 4.16577H32.4957V1.84483ZM32.4838 0.000211859H34.8736L34.2984 0.475999H32.4838V0.000211859Z" fill="white"/>
<path d="M0.017838 8.57658H3.04759L2.51732 9.29134H0.737303V11.3454H2.75083L3.61408 12.0601H0.017838V8.57658ZM0 5.80778H3.58706L2.72435 6.52253H0V5.80778Z" fill="white"/>
<path d="M4.69307 12.0601V8.84455L5.41253 9.44331V11.3454H7.4893L8.01958 12.0601H4.69307ZM4.69307 5.80778L5.41253 6.406V9.17534L4.69307 8.57658V5.80778Z" fill="white"/>
<path d="M8.93677 8.57658H11.9665L11.4363 9.29134H9.65624V11.3454H11.6698L12.533 12.0601H8.93677V8.57658ZM8.91894 5.80778H12.506L11.6433 6.52253H8.91894V5.80778Z" fill="white"/>
<path d="M19.2763 5.80772V12.0601H18.5568V7.89775L16.5789 10.4523V9.28216L19.2763 5.80772ZM13.6119 5.80772L16.3092 9.28216V10.4523L14.3314 7.89775V12.0601H13.6119V5.80772Z" fill="white"/>
<path d="M20.9126 8.57658H23.9424L23.4121 9.29134H21.6321V11.3454H23.6456L24.5088 12.0601H20.9126V8.57658ZM20.8948 5.80778H24.4818L23.6191 6.52253H20.8948V5.80778Z" fill="white"/>
<path d="M28.0783 8.56766L29.5437 10.1846V5.80745H30.2632V12.0604L28.0783 9.63953V8.56766ZM27.8086 9.33612L26.3069 7.68322V12.0604H25.588V5.80745L27.8086 8.26426V9.33612Z" fill="white"/>
<path d="M33.8595 12.0599H33.1401V6.79028H33.8595V12.0599ZM31.7827 6.5223L31.2519 5.80755H35.7476L35.2168 6.5223H31.7827Z" fill="white"/>
<path d="M37.213 11.3456H38.1659C38.5497 11.3456 38.8313 11.271 39.0113 11.1222C39.1908 10.9735 39.2811 10.7468 39.2811 10.4434C39.2811 10.2233 39.2568 10.052 39.2092 9.93005C39.1611 9.80762 39.0935 9.71096 39.0065 9.63953C38.9195 9.56811 38.8119 9.51333 38.6827 9.47413C38.554 9.43547 38.4086 9.38929 38.247 9.33613V8.62137C38.4567 8.69279 38.6665 8.75991 38.8762 8.82221C39.0859 8.88504 39.2735 8.97579 39.4384 9.09447C39.6032 9.21369 39.7378 9.37747 39.8427 9.58583C39.9476 9.79473 40 10.0804 40 10.4434C40 10.5567 39.9778 10.7039 39.933 10.8854C39.8876 11.0674 39.7978 11.2457 39.6632 11.4213C39.5281 11.5975 39.3422 11.7473 39.1054 11.8724C38.8686 11.9975 38.5557 12.0604 38.1659 12.0604H36.5567L37.213 11.3456ZM36.2421 7.42438C36.2421 7.31161 36.2643 7.16393 36.3092 6.98242C36.3546 6.80092 36.4443 6.62209 36.5789 6.44649C36.714 6.27089 36.9011 6.12053 37.1411 5.99541C37.3805 5.87028 37.6924 5.80745 38.0762 5.80745H39.6854L39.0292 6.52221H38.0762C37.6924 6.52221 37.4108 6.59685 37.2308 6.74561C37.0513 6.89436 36.9611 7.12097 36.9611 7.42438C36.9611 7.64509 36.9848 7.81586 37.033 7.93776C37.0811 8.0602 37.1486 8.15686 37.2357 8.22828C37.3221 8.2997 37.4303 8.35501 37.5589 8.39368C37.6881 8.43234 37.8335 8.47852 37.9951 8.53222V9.24644C37.7854 9.17502 37.5757 9.1079 37.3659 9.0456C37.1562 8.98277 36.9686 8.89256 36.8038 8.77334C36.6389 8.65413 36.5043 8.49034 36.3994 8.28198C36.2946 8.07362 36.2421 7.78793 36.2421 7.42438Z" fill="white"/>
<path d="M7.66006 19.9999V19.2852C7.96547 19.2675 8.25196 19.1917 8.51845 19.0575C8.78548 18.9238 9.01899 18.7482 9.22007 18.5307C9.42062 18.3132 9.57792 18.0635 9.69197 17.7805C9.80603 17.4975 9.86278 17.1952 9.86278 16.8735C9.86278 16.5524 9.80603 16.25 9.69197 15.967C9.57792 15.6846 9.42062 15.4343 9.22007 15.2168C9.01899 14.9993 8.78548 14.8237 8.51845 14.69C8.25196 14.5558 7.96547 14.4801 7.66006 14.4618V13.7476C8.06763 13.7653 8.44818 13.8593 8.80169 14.029C9.15521 14.1987 9.46386 14.4247 9.72819 14.7077C9.99143 14.9907 10.2001 15.3167 10.3531 15.6856C10.5055 16.0551 10.5822 16.4509 10.5822 16.8735C10.5822 17.2907 10.5055 17.6849 10.3531 18.0571C10.2001 18.4297 9.99143 18.7568 9.72819 19.0398C9.46386 19.3228 9.15521 19.5489 8.80169 19.7186C8.44818 19.8882 8.06763 19.9822 7.66006 19.9999ZM7.39033 13.7476V14.4618C7.08438 14.4801 6.79843 14.5558 6.53194 14.69C6.26492 14.8237 6.0314 14.9993 5.83032 15.2168C5.62977 15.4343 5.47248 15.6846 5.35842 15.967C5.24437 16.25 5.18761 16.5524 5.18761 16.8735C5.18761 17.1952 5.24437 17.4975 5.35842 17.7805C5.47248 18.0635 5.62977 18.3132 5.83032 18.5307C6.0314 18.7482 6.26492 18.9238 6.53194 19.0575C6.79843 19.1917 7.08438 19.2675 7.39033 19.2852V19.9999C6.9887 19.9822 6.60978 19.8882 6.25302 19.7186C5.89626 19.5489 5.58599 19.3228 5.3222 19.0398C5.05842 18.7568 4.85031 18.4297 4.69733 18.0571C4.5449 17.6849 4.46814 17.2907 4.46814 16.8735C4.46814 16.4509 4.5449 16.0551 4.69733 15.6856C4.85031 15.3167 5.05842 14.9907 5.3222 14.7077C5.58599 14.4247 5.89626 14.1987 6.25302 14.029C6.60978 13.8593 6.9887 13.7653 7.39033 13.7476Z" fill="white"/>
<path d="M12.3982 17.231V19.9998H11.6787V16.5163H14.709L14.1782 17.231H12.3982ZM11.6609 13.7475H15.2485L14.3853 14.4622H11.6609V13.7475Z" fill="white"/>
<path d="M20.1933 19.9999V16.7843L20.9128 17.3831V19.2852H22.9895L23.5198 19.9999H20.1933ZM20.1933 13.7476L20.9128 14.3458V17.1151L20.1933 16.5164V13.7476Z" fill="white"/>
<path d="M24.419 19.9999V16.7038L25.1384 17.3026V19.9999H24.419ZM25.1384 17.0346L24.419 16.4364V13.7476H25.1384V17.0346Z" fill="white"/>
<path d="M27.4938 17.231V19.9998H26.7744V16.5163H29.8047L29.2739 17.231H27.4938ZM26.7565 13.7475H30.3441L29.4809 14.4622H26.7565V13.7475Z" fill="white"/>
<path d="M31.4409 16.5164H34.4706L33.9403 17.2312H32.1603V19.2852H34.1738L35.0371 20H31.4409V16.5164ZM31.423 13.7476H35.0101L34.1474 14.4619H31.423V13.7476Z" fill="white"/>
</svg>
