<svg width="79" height="24" viewBox="0 0 79 24" fill="none" xmlns="http://www.w3.org/2000/svg">
<path d="M21.8245 13.6594H20.8865L20.1193 6.90677L19.9383 7.03708L16.3402 13.8285L12.5891 6.84894L11.8218 13.6594H10.8838L11.879 3.55829L16.3395 11.7296L20.7165 3.50046L21.8245 13.6594Z" fill="white"/>
<path d="M46.5475 11.9853C46.4809 12.2898 45.707 12.863 45.4286 13.0241C42.5809 14.6654 38.5637 13.631 37.4674 10.3828C36.0524 6.18803 40.2521 2.40836 44.3301 4.0416C45.1618 4.37469 46.0961 5.07748 46.486 5.87836L45.7012 6.33444C44.3118 4.07601 40.9878 3.92886 39.2716 5.91204C37.3026 8.18657 38.2574 12.0233 41.2611 12.7803C42.6366 13.1266 44.5389 12.8411 45.5246 11.7583V9.63021H42.9957C42.8183 9.41718 42.948 9.04822 42.9099 8.77881H46.5475V11.9853Z" fill="white"/>
<path d="M8.75255 13.6594H7.70098L4.34843 5.88407L1.08015 13.6594H0L4.4327 3.38772L8.75255 13.6594Z" fill="white"/>
<path d="M58.1418 13.6594H57.0903L53.7377 5.88407L50.4694 13.6594H49.3893L53.822 3.38772L58.1418 13.6594Z" fill="white"/>
<path d="M79 13.6594H77.9484L74.5959 5.88407L71.3276 13.6594H70.2475L74.6802 3.38772L79 13.6594Z" fill="white"/>
<path d="M29.554 13.7729V12.9215C31.2064 12.8395 32.6127 11.89 33.1769 10.3249C34.1508 7.62354 32.554 4.62425 29.554 4.52323V3.67183C32.0513 3.65792 34.2805 5.68209 34.4447 8.18064C34.6462 11.2619 32.6845 13.6536 29.554 13.7729Z" fill="white"/>
<path d="M28.9857 3.67162V4.57938C27.1127 4.6826 25.6354 6.27265 25.3635 8.08526C25.0176 10.3949 26.5844 12.7156 28.9857 12.8649V13.7727C25.8135 13.5326 23.6473 10.5106 24.468 7.41761C25.0074 5.38319 26.8819 3.83414 28.9857 3.67162Z" fill="white"/>
<path d="M68.1446 3.78509L64.6778 9.37516V13.6592H63.7119V9.31806L67.0367 3.78509H68.1446Z" fill="white"/>
<path d="M23.558 17.6885C24.0036 17.7478 24.5407 18.1387 24.7686 18.5231C25.445 19.6607 24.9159 21.2156 23.5873 21.5187L25.0639 23.8738L24.2974 23.8167L22.8743 21.5495L22.8472 20.9799C23.5133 21.026 24.0409 20.914 24.296 20.2412C24.5327 19.6183 24.4447 18.6973 23.7786 18.3767C23.6833 18.3313 23.2942 18.1995 23.2173 18.1995H21.3699V23.8745H20.7448V17.6885C21.6205 17.7734 22.708 17.5751 23.558 17.6885Z" fill="white"/>
<path d="M14.8907 20.98H16.7381C16.7887 20.98 17.1272 20.8035 17.1924 20.753C17.6797 20.376 17.7999 19.4997 17.5728 18.9543C17.4262 18.6015 16.8934 18.1996 16.5102 18.1996H14.8907V20.98ZM14.8907 21.5473V23.8738H14.2656V17.6886H16.7945C16.8876 17.6886 17.3002 17.8665 17.4086 17.9265C18.9563 18.7838 18.4155 21.5473 16.5674 21.5473H14.8907Z" fill="white"/>
<path d="M50.4006 17.5918C51.3914 17.4842 52.2949 17.7909 53.0255 18.4549L52.6496 18.8759C50.4614 16.9198 47.3258 19.1101 48.3957 21.8305C49.0801 23.5706 51.236 23.9279 52.6107 22.747L52.9625 23.1189C52.385 23.8159 51.3269 24.0611 50.4416 23.9864C46.6611 23.6709 46.6084 18.0032 50.4006 17.5918Z" fill="white"/>
<path d="M64.335 18.5956C63.7846 18.2734 63.408 18.0421 62.7301 18.1563C62.1058 18.261 61.6324 18.996 61.957 19.5824C62.4934 20.5502 64.8318 20.3005 64.9644 22.0275C65.1301 24.2017 62.0091 24.5773 60.9282 23.0509C61.4668 22.4777 61.3561 22.731 61.7841 23.0465C62.5389 23.6022 63.8989 23.652 64.25 22.6241C64.9234 20.6519 61.3745 21.2815 61.2118 19.362C61.0572 17.5414 63.6058 16.9916 64.6164 18.22L64.335 18.5956Z" fill="white"/>
<path d="M58.9943 17.6885V18.1995H57.3463V23.8745H56.664V18.1995H55.016V17.6885H58.9943Z" fill="white"/>
<path d="M61.3525 3.78495L64.0444 8.0271C64.0656 8.13421 63.529 8.94988 63.3995 8.94955L60.2448 3.78528L61.3525 3.78495Z" fill="white"/>
<path d="M30.5773 23.9875V23.4194C33.8719 23.3301 33.8697 18.232 30.5773 18.1434V17.5753C34.7168 17.7613 34.7146 23.7972 30.5773 23.9875Z" fill="white"/>
<path d="M38.8181 17.6885V22.4272C38.8181 22.4719 38.7316 22.8115 38.7074 22.8847C38.3322 24.0509 36.5325 24.3145 35.6421 23.619L35.947 23.1417C36.4658 23.5129 37.469 23.548 37.9094 23.0524C37.9446 23.0129 38.1358 22.6768 38.1358 22.6541V17.6885H38.8181Z" fill="white"/>
<path d="M30.2362 17.5753V18.1427C27.1438 18.4765 27.124 23.0893 30.2362 23.4209L30.2069 23.9883C26.2659 23.5549 26.3069 17.9956 30.2362 17.5753Z" fill="white"/>
<path d="M41.4892 20.4127H45.1269V20.9801H41.4892V20.4127Z" fill="white"/>
<path d="M41.4321 23.3629H45.2968V23.8739H41.4321V23.3629Z" fill="white"/>
<path d="M45.2968 17.6886H41.4892V18.1996H45.2968V17.6886Z" fill="white"/>
<path d="M57.835 0.946564H49.185C48.9234 0.946564 48.7117 0.734996 48.7117 0.473648C48.7117 0.2123 48.9234 0 49.185 0H57.835C58.0966 0 58.3084 0.2123 58.3084 0.473648C58.3084 0.734996 58.0966 0.946564 57.835 0.946564Z" fill="#DE4E26"/>
</svg>
